<?xml version="1.0" encoding="UTF-8"?><svg id="a" xmlns="http://www.w3.org/2000/svg" viewBox="0 0 600 240"><path d="m499.45,208.68h-3.79c-.22,0-.36-.15-.36-.36s.15-.36.36-.36h3.86c1.53,0,2.84-1.24,2.84-2.84v-3.72c0-.22.15-.36.36-.36s.36.15.36.36v3.72c-.15,2.04-1.68,3.57-3.65,3.57Z" style="fill:#162b40; stroke-width:0px;"/><path d="m487.7,208.68h-8.68c-1.97,0-3.5-1.53-3.5-3.5v-16.04c0-1.97,1.53-3.5,3.5-3.5h20.42c1.97,0,3.5,1.53,3.5,3.5v4.08c0,.22-.15.36-.36.36s-.36-.15-.36-.36v-4.08c0-1.53-1.24-2.84-2.84-2.84h-20.42c-1.53,0-2.84,1.24-2.84,2.84v16.04c0,1.53,1.24,2.84,2.84,2.84h8.68c.22,0,.36.15.36.36.07.22-.07.29-.29.29Z" style="fill:#162b40; stroke-width:0px;"/><path d="m502.58,189.14c0-1.75-1.46-3.14-3.14-3.14h-20.42c-1.75,0-3.14,1.46-3.14,3.14h26.69Z" style="fill:#20e2ad; stroke-width:0px;"/><path d="m502.95,189.5h-27.42v-.36c0-1.97,1.53-3.5,3.5-3.5h20.42c1.97,0,3.5,1.53,3.5,3.5v.36Zm-26.69-.73h25.96c-.15-1.39-1.39-2.48-2.77-2.48h-20.42c-1.46.07-2.63,1.09-2.77,2.48Z" style="fill:#162b40; stroke-width:0px;"/><path d="m496.16,204.16c-.88,0-1.68-.29-2.33-.95l-1.02-1.02c-.15-.15-.15-.36,0-.51s.36-.15.51,0l1.02,1.02c1.02,1.02,2.7,1.02,3.72,0l3.35-3.28c1.09-1.02,1.17-2.77.07-3.86s-2.7-1.24-3.86-.22l-2.19,1.9c-.15.15-.36.07-.51,0-.15-.15-.07-.36,0-.51l2.19-1.9c1.46-1.24,3.57-1.17,4.81.22,1.31,1.39,1.24,3.57-.15,4.89l-3.35,3.28c-.51.66-1.39.95-2.26.95Z" style="fill:#162b40; stroke-width:0px;"/><path d="m491.64,208.68c-.95,0-1.82-.36-2.55-1.09-1.31-1.39-1.24-3.57.15-4.89l3.35-3.21c1.31-1.31,3.35-1.31,4.67,0l1.02,1.02c.15.15.15.36,0,.51s-.36.15-.51,0l-1.02-1.02c-1.02-1.02-2.7-1.02-3.72,0l-3.35,3.28c-1.09,1.02-1.17,2.77-.07,3.86,1.02,1.09,2.7,1.24,3.86.22l2.19-1.9c.15-.15.36-.07.51,0,.15.15.07.36,0,.51l-2.19,1.9c-.73.58-1.53.8-2.33.8Z" style="fill:#162b40; stroke-width:0px;"/><path d="m485.37,195.85l-2.55-1.53c-.44-.29-1.09,0-1.09.58v3.14c0,.51.58.88,1.09.58l2.55-1.53c.51-.29.51-.95,0-1.24Z" style="fill:#08aeec; stroke-width:0px;"/><path d="m482.53,199.13c-.15,0-.36,0-.51-.15-.36-.15-.51-.51-.51-.95v-3.14c0-.36.22-.73.51-.95s.73-.15,1.09,0l2.55,1.53c.29.15.51.51.51.88s-.15.73-.51.88l-2.55,1.53c-.22.29-.44.36-.58.36Zm0-4.59h-.15c-.07,0-.15.07-.15.29v3.14c0,.15.15.29.15.29.07,0,.15.07.36,0l2.55-1.53c.15-.07.15-.22.15-.29s0-.22-.15-.29l-2.55-1.53c-.15,0-.22-.07-.22-.07Z" style="fill:#162b40; stroke-width:0px;"/><path d="m483.33,201.82c-2.84,0-5.25-2.33-5.25-5.25s2.33-5.25,5.25-5.25,5.25,2.33,5.25,5.25-2.33,5.25-5.25,5.25Zm0-9.77c-2.48,0-4.52,2.04-4.52,4.52s2.04,4.52,4.52,4.52,4.52-2.04,4.52-4.52-1.97-4.52-4.52-4.52Z" style="fill:#162b40; stroke-width:0px;"/><path d="m432.67,138.28h-26.18c-.22,0-.36-.15-.36-.36s.15-.36.36-.36h26.18c.22,0,.36.15.36.36s-.15.36-.36.36Z" style="fill:#162b40; stroke-width:0px;"/><path d="m428.73,135.73h-18.38c-.22,0-.36-.15-.36-.36s.15-.36.36-.36h18.38c.22,0,.36.15.36.36s-.15.36-.36.36Z" style="fill:#162b40; stroke-width:0px;"/><path d="m425.6,140.91h-12.03c-.22,0-.36-.15-.36-.36s.15-.36.36-.36h12.03c.22,0,.36.15.36.36s-.15.36-.36.36Z" style="fill:#162b40; stroke-width:0px;"/><path d="m419.26,132.52c-1.09,0-6.56-.29-7.07-6.85,0-.22.15-.44.36-.44s.44.15.44.36c.51,6.49,6.2,6.2,6.42,6.13.22,0,.44.15.44.36s-.15.44-.36.44c0,0-.07,0-.22,0Z" style="fill:#20e2ad; stroke-width:0px;"/><path d="m414.08,127.2c-.15,0-.22-.07-.29-.15l-1.24-1.24-1.24,1.24c-.15.15-.36.15-.58,0-.15-.15-.15-.36,0-.58l1.46-1.46c.15-.15.36-.15.58,0l1.46,1.46c.15.15.15.36,0,.58.15.07,0,.15-.15.15Z" style="fill:#20e2ad; stroke-width:0px;"/><path d="m426.77,125.16c-.22,0-.36-.15-.36-.36-.51-6.42-6.2-6.2-6.42-6.13-.22,0-.44-.15-.44-.36s.15-.44.36-.44c.07,0,6.71-.36,7.29,6.85,0,.22-.15.44-.44.44h0Z" style="fill:#20e2ad; stroke-width:0px;"/><path d="m426.77,125.52c-.15,0-.22-.07-.29-.15l-1.46-1.46c-.15-.15-.15-.36,0-.58.15-.15.44-.15.58,0l1.24,1.24,1.24-1.24c.15-.15.36-.15.58,0,.15.15.15.36,0,.58l-1.46,1.46c-.22.07-.36.15-.44.15Z" style="fill:#20e2ad; stroke-width:0px;"/><path d="m418.74,128.66l-2.63-2.63c-.44-.44-.44-1.24,0-1.75l2.63-2.63c.44-.44,1.24-.44,1.75,0l2.63,2.63c.44.44.44,1.24,0,1.75l-2.63,2.63c-.44.44-1.24.44-1.75,0Z" style="fill:#08aeec; stroke-width:0px;"/><path d="m419.62,129.39c-.44,0-.8-.15-1.17-.44h0l-2.63-2.63c-.66-.66-.66-1.68,0-2.33l2.63-2.63c.66-.66,1.68-.66,2.33,0l2.63,2.63c.29.29.44.73.44,1.17s-.15.8-.44,1.17l-2.63,2.63c-.29.29-.73.44-1.17.44Zm-.58-1.02c.29.29.88.29,1.17,0l2.63-2.63c.15-.15.22-.36.22-.58s-.07-.44-.22-.58l-2.63-2.63c-.29-.29-.88-.29-1.17,0l-2.63,2.63c-.29.29-.29.88,0,1.17l2.63,2.63Z" style="fill:#162b40; stroke-width:0px;"/><path d="m421.95,147.84h-5.69c-1.02,0-1.82-.8-1.82-1.82h0c0-1.02.8-1.82,1.82-1.82h5.69c1.02,0,1.82.8,1.82,1.82h0c0,.95-.8,1.82-1.82,1.82Z" style="fill:#08aeec; stroke-width:0px;"/><path d="m421.95,148.2h-5.69c-1.24,0-2.26-1.02-2.26-2.26s1.02-2.26,2.26-2.26h5.69c1.24,0,2.26,1.02,2.26,2.26s-1.02,2.26-2.26,2.26Zm-5.69-3.72c-.8,0-1.46.66-1.46,1.46s.66,1.46,1.46,1.46h5.69c.8,0,1.46-.66,1.46-1.46s-.66-1.46-1.46-1.46h-5.69Z" style="fill:#162b40; stroke-width:0px;"/><path d="m486.63,137.37c-6.71,0-12.18-5.47-12.18-12.18s5.47-12.18,12.18-12.18,12.18,5.47,12.18,12.18-5.47,12.18-12.18,12.18Zm0-23.55c-6.27,0-11.38,5.1-11.38,11.38s5.1,11.38,11.38,11.38,11.38-5.1,11.38-11.38-5.1-11.38-11.38-11.38Z" style="fill:#162b40; stroke-width:0px;"/><circle cx="486.63" cy="125.19" r="6.34" style="fill:#20e2ad; stroke-width:0px;"/><path d="m486.63,131.9c-3.72,0-6.71-3.06-6.71-6.71s3.06-6.71,6.71-6.71,6.71,3.06,6.71,6.71c0,3.72-2.99,6.71-6.71,6.71Zm0-12.62c-3.28,0-5.91,2.7-5.91,5.91s2.7,5.91,5.91,5.91,5.91-2.7,5.91-5.91c.07-3.28-2.63-5.91-5.91-5.91Z" style="fill:#162b40; stroke-width:0px;"/><circle cx="486.63" cy="113.67" r="2.77" style="fill:#fff; stroke-width:0px;"/><path d="m486.63,116.81c-1.75,0-3.14-1.39-3.14-3.14s1.39-3.14,3.14-3.14,3.14,1.39,3.14,3.14c.07,1.68-1.39,3.14-3.14,3.14Zm0-5.54c-1.31,0-2.33,1.02-2.33,2.33s1.02,2.33,2.33,2.33,2.33-1.02,2.33-2.33c0-1.24-1.02-2.33-2.33-2.33Z" style="fill:#162b40; stroke-width:0px;"/><circle cx="474.89" cy="124.97" r="2.77" style="fill:#fff; stroke-width:0px;"/><path d="m474.89,128.11c-1.75,0-3.14-1.39-3.14-3.14s1.39-3.14,3.14-3.14,3.14,1.39,3.14,3.14-1.46,3.14-3.14,3.14Zm0-5.54c-1.31,0-2.33,1.02-2.33,2.33s1.02,2.33,2.33,2.33,2.33-1.02,2.33-2.33c0-1.24-1.09-2.33-2.33-2.33Z" style="fill:#162b40; stroke-width:0px;"/><circle cx="486.2" cy="136.72" r="2.77" style="fill:#08aeec; stroke-width:0px;"/><path d="m486.2,139.92c-1.75,0-3.14-1.39-3.14-3.14s1.39-3.14,3.14-3.14,3.14,1.39,3.14,3.14-1.39,3.14-3.14,3.14Zm0-5.54c-1.31,0-2.33,1.02-2.33,2.33s1.02,2.33,2.33,2.33,2.33-1.02,2.33-2.33-1.09-2.33-2.33-2.33Z" style="fill:#162b40; stroke-width:0px;"/><circle cx="497.94" cy="125.41" r="2.77" style="fill:#fff; stroke-width:0px;"/><path d="m497.94,128.55c-1.75,0-3.14-1.39-3.14-3.14s1.39-3.14,3.14-3.14,3.14,1.39,3.14,3.14-1.39,3.14-3.14,3.14Zm0-5.47c-1.31,0-2.33,1.02-2.33,2.33s1.02,2.33,2.33,2.33,2.33-1.02,2.33-2.33c.07-1.31-1.02-2.33-2.33-2.33Z" style="fill:#162b40; stroke-width:0px;"/><path d="m488.89,125.85h-4.74c-.22,0-.44-.15-.44-.44s.15-.44.44-.44h4.74c.22,0,.44.15.44.44s-.15.44-.44.44Z" style="fill:#162b40; stroke-width:0px;"/><path d="m428.72,76.76l19.69-14.8v-.07c-.88-.15-9.77-2.19-14.66-10.35h-.07l-6.42,24.28c-.22.88.73,1.46,1.46.95Z" style="fill:#20e2ad; stroke-width:0px;"/><path d="m428.14,77.49c-.29,0-.58-.07-.8-.29-.51-.36-.73-.95-.58-1.53l6.49-24.65.73-.07.22.29c4.74,7.95,13.34,9.92,14.29,10.14l.36.07.07.36c.07.22-.07.44-.22.58l-19.76,14.8c-.15.22-.51.29-.8.29Zm5.76-24.57l-6.05,23.12c-.07.22.07.29.15.36.07.07.22.07.44,0h0l18.81-14.15c-2.63-.73-9.12-3.14-13.34-9.33Z" style="fill:#162b40; stroke-width:0px;"/><path d="m433.61,52.11c-.29-.51-.07-1.17.44-1.39,1.09-.44,3.94-.29,9.55,3.43,0,0,7.22,5.76,5.32,7.8-.29.36-.66.51-1.09.29-2.41-.58-10.14-3.43-14.22-10.14Z" style="fill:#162b40; stroke-width:0px;"/><path d="m448.12,62.54c-.07,0-.29,0-.44-.07-.36-.07-9.55-2.48-14.37-10.28h0c-.22-.29-.22-.66-.07-1.02s.36-.58.66-.73c.66-.29,3.21-.88,9.41,3.21.29.22.66.51.95.73,1.39,1.17,5.1,4.52,5.32,6.64.07.51-.07.88-.36,1.09-.44.29-.73.44-1.09.44Zm-13.05-11.74c-.51,0-.88.07-.95.15-.15.07-.29.22-.36.44s-.07.44.07.58h0c4.67,7.58,13.64,9.92,14.07,9.99.36.07.58,0,.88-.29.15-.22.29-.44.22-.73-.15-2.26-5.54-6.64-5.54-6.64-4.59-2.92-7.15-3.5-8.39-3.5Z" style="fill:#162b40; stroke-width:0px;"/><polygon points="447.9 42.05 447.68 44.82 449.58 44.6 450.23 41.69 447.9 42.05" style="fill:#162b40; stroke-width:0px;"/><polygon points="447.32 34.61 447.46 36.87 445.93 36.73 445.35 34.32 447.32 34.61" style="fill:#20e2ad; stroke-width:0px;"/><polygon points="460.51 49.71 460.66 51.97 459.13 51.82 458.54 49.42 460.51 49.71" style="fill:#162b40; stroke-width:0px;"/><polygon points="442.79 40.74 442.65 42.27 443.74 42.12 444.11 40.52 442.79 40.74" style="fill:#162b40; stroke-width:0px;"/><polygon points="453.22 35.34 453.08 37.68 454.68 37.46 455.26 35.05 453.22 35.34" style="fill:#162b40; stroke-width:0px;"/><polygon points="449.21 49.78 449.14 51.24 450.23 51.17 450.6 49.56 449.21 49.78" style="fill:#162b40; stroke-width:0px;"/><polygon points="440.97 46.13 441.12 48.39 439.59 48.25 439 45.84 440.97 46.13" style="fill:#08aeec; stroke-width:0px;"/><path d="m458.91,42.63s-1.53.44-.58,1.39c1.02.95,1.39,1.46.58,2.33" style="fill:none; stroke:#20e2ad; stroke-linecap:round; stroke-linejoin:round; stroke-width:1.46px;"/><path d="m452.93,55.83s1.97.58,2.48-1.17" style="fill:none; stroke:#08aeec; stroke-linecap:round; stroke-linejoin:round; stroke-width:1.46px;"/><polygon points="539.99 152.6 541.89 150.57 543.86 151.98 549.19 148.67 549.25 157.5 539.38 157.69 539.32 153.33 539.99 152.6" style="fill:#20e2ad; stroke-width:0px;"/><polyline points="575.63 149.35 576.67 150.57 575.51 151.55" style="fill:#fff; stroke-width:0px;"/><path d="m575.51,152.04c-.12,0-.31-.06-.37-.12-.18-.18-.12-.49.06-.67l.74-.61-.74-.86c-.12-.25-.12-.55.12-.74.18-.18.55-.12.67.06l1.04,1.23c.18.18.12.49-.06.67l-1.17.98c-.06,0-.18.06-.31.06Z" style="fill:#162b40; stroke-width:0px;"/><polyline points="537.17 149.35 536.07 150.57 537.23 151.55" style="fill:#fff; stroke-width:0px;"/><path d="m537.23,152.04c-.12,0-.25-.06-.37-.12l-1.17-.98c-.18-.18-.25-.49-.06-.67l1.04-1.23c.18-.18.49-.25.67-.06.18.18.25.49.06.67l-.74.86.74.61c.18.18.25.49.06.67.06.18-.12.25-.25.25Z" style="fill:#162b40; stroke-width:0px;"/><path d="m539.5,154.01c-.12,0-.25-.06-.37-.12-.18-.18-.25-.49-.06-.67l2.7-3.07c.12-.18.43-.18.61-.06l1.78,1.29,4.78-3.43c.18-.12.55-.12.67.12.12.18.12.55-.12.67l-5.03,3.68c-.18.12-.37.12-.61,0l-1.72-1.23-2.39,2.7c.06.12-.12.12-.25.12Z" style="fill:#162b40; stroke-width:0px;"/><path d="m544.72,149.04c-.86,0-1.66-.74-1.66-1.66s.74-1.66,1.66-1.66,1.66.74,1.66,1.66-.74,1.66-1.66,1.66Zm0-2.21c-.37,0-.61.31-.61.61s.31.61.61.61.61-.31.61-.61c.06-.37-.25-.61-.61-.61Z" style="fill:#162b40; stroke-width:0px;"/><path d="m548.64,158.18h-8.28c-.8,0-1.41-.61-1.41-1.41v-13.68c0-.8.61-1.41,1.41-1.41h8.28c.8,0,1.41.61,1.41,1.41v13.68c0,.8-.61,1.41-1.41,1.41Zm-8.28-15.58c-.25,0-.43.18-.43.43v13.68c0,.25.18.43.43.43h8.28c.25,0,.43-.18.43-.43v-13.68c0-.25-.18-.43-.43-.43h-8.28Z" style="fill:#162b40; stroke-width:0px;"/><path d="m551.34,154.31c-.12,0-.25-.06-.37-.12-.18-.18-.25-.49-.06-.67l2.7-3.07c.12-.18.43-.18.61-.06l1.78,1.29,4.78-3.43c.18-.12.55-.12.67.12.12.18.12.55-.12.67l-5.09,3.68c-.18.12-.37.12-.61,0l-1.66-1.23-2.39,2.76s-.06.06-.25.06Z" style="fill:#162b40; stroke-width:0px;"/><path d="m557.17,149.04c-.86,0-1.66-.74-1.66-1.66s.74-1.66,1.66-1.66,1.66.74,1.66,1.66-.74,1.66-1.66,1.66Zm0-2.21c-.37,0-.61.31-.61.61s.31.61.61.61.61-.31.61-.61c0-.37-.25-.61-.61-.61Z" style="fill:#162b40; stroke-width:0px;"/><path d="m560.54,158.18h-8.28c-.8,0-1.41-.61-1.41-1.41v-13.68c0-.8.61-1.41,1.41-1.41h8.28c.8,0,1.41.61,1.41,1.41v13.68c0,.8-.61,1.41-1.41,1.41Zm-8.28-15.58c-.25,0-.43.18-.43.43v13.68c0,.25.18.43.43.43h8.28c.25,0,.43-.18.43-.43v-13.68c0-.25-.18-.43-.43-.43h-8.28Z" style="fill:#162b40; stroke-width:0px;"/><polygon points="564.22 152.6 566.06 150.57 568.02 151.98 573.36 148.67 573.42 157.5 563.48 157.69 563.48 153.33 564.22 152.6" style="fill:#08aeec; stroke-width:0px;"/><path d="m563.42,154.5c-.12,0-.25-.06-.37-.12-.18-.18-.25-.49-.06-.67l2.7-3.07c.12-.18.43-.18.61-.06l1.78,1.29,4.72-3.43c.18-.12.55-.12.67.12.12.18.12.55-.12.67l-5.03,3.62c-.18.12-.37.12-.61,0l-1.66-1.23-2.39,2.7c.06.12-.12.18-.25.18Z" style="fill:#162b40; stroke-width:0px;"/><path d="m569.5,149.04c-.86,0-1.66-.74-1.66-1.66s.74-1.66,1.66-1.66,1.66.74,1.66,1.66-.8,1.66-1.66,1.66Zm0-2.21c-.37,0-.61.31-.61.61s.31.61.61.61c.37,0,.61-.31.61-.61,0-.37-.31-.61-.61-.61Z" style="fill:#162b40; stroke-width:0px;"/><path d="m572.32,158.18h-8.28c-.8,0-1.41-.61-1.41-1.41v-13.68c0-.8.61-1.41,1.41-1.41h8.28c.8,0,1.41.61,1.41,1.41v13.68c.06.8-.61,1.41-1.41,1.41Zm-8.28-15.58c-.25,0-.43.18-.43.43v13.68c0,.25.18.43.43.43h8.28c.25,0,.43-.18.43-.43v-13.68c0-.25-.18-.43-.43-.43h-8.28Z" style="fill:#162b40; stroke-width:0px;"/><circle cx="556.31" cy="162.1" r="1.47" style="fill:#20e2ad; stroke-width:0px;"/><path d="m556.31,164.13c-1.1,0-1.96-.86-1.96-1.96s.86-1.96,1.96-1.96,1.96.86,1.96,1.96c0,1.04-.92,1.96-1.96,1.96Zm0-3.01c-.55,0-.98.43-.98.98s.43.98.98.98.98-.43.98-.98c0-.49-.43-.98-.98-.98Z" style="fill:#162b40; stroke-width:0px;"/><circle cx="549.25" cy="162.1" r="1.04" style="fill:#08aeec; stroke-width:0px;"/><circle cx="563.48" cy="162.1" r="1.04" style="fill:#08aeec; stroke-width:0px;"/><path d="m538.84,80.88h.58c-.07.07-.15.15-.22.22-.07.07-.22.07-.36.07h-12.25c-.36,0-.66-.29-.66-.66v-25.3c0-.36.29-.66.66-.66h12.25c.15,0,.22,0,.36.07.07.07.15.15.22.22h-6.78v26.03h6.2Z" style="fill:#20e2ad; stroke-width:0px;"/><path d="m539.5,63.89v-.58h-.29" style="fill:#20e2ad; stroke-width:0px;"/><path d="m539.21,72.42h.29v-.58" style="fill:#20e2ad; stroke-width:0px;"/><path d="m539.5,54.85h.22c-.07-.15-.15-.22-.22-.29-.07-.07-.22-.15-.36-.22-.07-.07-.22-.07-.36-.07h-12.25c-.51,0-.95.44-.95.95v25.23c0,.51.44.95.95.95h12.25c.15,0,.22,0,.36-.07s.22-.15.36-.22c.07-.07.15-.22.22-.29h-.22v-.36c0,.15-.07.29-.15.36h-12.83c-.22,0-.36-.15-.36-.36v-25.23c0-.22.15-.36.36-.36h12.83m.15,8.46h-.29m0,9.12h.29m.29-9.04h-.58m0,9.04h.58" style="fill:#162b40; stroke-width:0px;"/><path d="m539.5,54.85h6.2v26.03h-6.2v-.36c0,.15-.07.29-.15.36h-.44c.07.07.15.15.22.22.07.07.22.07.36.07h12.25c.36,0,.66-.29.66-.66v-25.3c0-.36-.29-.66-.66-.66h-12.25c-.15,0-.22,0-.36.07-.07.07-.15.15-.22.22h.44m-.36,9.04v-.58m0,5.98v-2.99m0,6.13v-.58m.51,0v.58h-.29m.29-5.69v2.33m-.51-5.76c.07,0,.15.07.29.07l.07.22.29.36" style="fill:#08aeec; stroke-width:0px;"/><path d="m539.5,54.85h12.25c.22,0,.36.15.36.36v25.23c0,.22-.15.36-.36.36h-12.25v-.36c0,.15-.07.29-.15.36h-.8c.07.15.15.22.22.29s.22.15.36.22c.07.07.22.07.36.07h12.25c.51,0,.95-.44.95-.95v-25.23c0-.51-.44-.95-.95-.95h-12.25c-.15,0-.22,0-.36.07s-.22.15-.36.22c-.07.07-.15.22-.22.29h.8m-.36,9.04v-.58m0,5.98v-2.99m0,6.13v-.58m.51,0v.58h-.29m.29-5.69v2.33m-.51-5.76h.58v.58" style="fill:#162b40; stroke-width:0px;"/><path d="m539.5,80.44c0,.15-.07.29-.15.36h-.44m.29-8.39h.29m0,8.02v.36h.22m-.22-8.97v.58m0-5.69v2.33m.29,3.28c2.19-.29,3.94-2.19,3.94-4.52s-1.68-4.23-3.94-4.52h-.29v.58m-.07-9.04h-.44m.73,26.03h5.98v-26.03h-6.2m-.29,8.46h.58c2.19.29,3.94,2.19,3.94,4.52s-1.68,4.23-3.94,4.52m-7.44-17.79v26.62h13.64v-26.62h-13.64Zm6.64,26.25h-6.34v-25.96h6.34m0,8.46c-2.41.07-4.38,2.11-4.38,4.52s1.9,4.45,4.38,4.52m.51,8.53h6.2v-26.03h-6.2m-.51,8.46h.58m-.15-8.46h-.44m-6.34,26.03v-26.03" style="fill:none; stroke-width:0px;"/><path d="m532.06,54.26v27.2h14.22v-27.2h-14.22Zm13.64,26.62h-13.05v-26.03h13.05v26.03Z" style="fill:#162b40; stroke-width:0px;"/><path d="m539.79,63.38h-.88c-2.41.07-4.38,2.11-4.38,4.52s1.9,4.45,4.38,4.52h.88c2.19-.29,3.94-2.19,3.94-4.52,0-2.33-1.68-4.23-3.94-4.52Zm0,8.39h-.88c-2.11-.07-3.72-1.82-3.72-3.94s1.68-3.86,3.72-3.94h.88c1.9.29,3.35,1.97,3.35,3.94s-1.46,3.65-3.35,3.94Z" style="fill:#162b40; stroke-width:0px;"/><polygon points="540.89 67.83 538.26 66.37 538.26 69.36 540.89 67.83" style="fill:#08aeec; stroke-width:0px;"/><path d="m539.21,66.95v.36l.29.15v-.36l-.29-.15Zm.58,0l-.29-.15-.29-.15-.29-.15-1.02-.58v4.01l1.02-.58.29-.15.29-.15.29-.15,1.6-.95-1.6-1.02Zm-1.24-.07l.44.22.29.15.29.15.29.15.44.22-.44.22-.29.15-.29.15-.29.15-.44.22v-1.75Zm.66.07v.36l.29.15v-.36l-.29-.15Z" style="fill:#162b40; stroke-width:0px;"/><path d="m402.74,196.11v-1.82c0-.51-.22-.95-.58-1.24l-5.98-5.32c-.44-.36-1.09-.51-1.6-.15l-2.77,1.82v5.61c0,.66.51,1.17,1.17,1.17h9.77v-.07Z" style="fill:#08aeec; stroke-width:0px;"/><path d="m405.87,191.73l-3.72-3.14c-.44-.29-1.02-.29-1.46,0l-1.97,1.24,3.21,2.99s.73.66.73,1.6v1.68h1.97c.66,0,1.24-.58,1.24-1.24v-3.14Z" style="fill:#20e2ad; stroke-width:0px;"/><circle cx="401.72" cy="184.8" r="1.46" style="fill:#08aeec; stroke-width:0px;"/><path d="m401.72,186.63c-1.02,0-1.9-.8-1.9-1.9,0-1.02.8-1.9,1.9-1.9,1.02,0,1.9.8,1.9,1.9s-.88,1.9-1.9,1.9Zm0-2.84c-.58,0-1.09.51-1.09,1.09s.51,1.09,1.09,1.09,1.09-.51,1.09-1.09-.51-1.09-1.09-1.09Z" style="fill:#162b40; stroke-width:0px;"/><path d="m405.87,192.24l-3.94-3.28c-.29-.22-.66-.22-.95,0l-1.97,1.24-.44-.66,1.97-1.24c.58-.36,1.31-.36,1.9.07l3.94,3.28-.51.58Z" style="fill:#162b40; stroke-width:0px;"/><path d="m403.1,196.11h-.8v-1.82c0-.36-.15-.73-.36-.95l-5.98-5.4c-.29-.29-.73-.29-1.09-.07l-2.99,1.97-.44-.66,2.99-1.97c.66-.44,1.46-.36,2.04.15l5.98,5.4c.44.36.66.95.66,1.53v1.82h0Z" style="fill:#162b40; stroke-width:0px;"/><path d="m404.42,196.91h-11.16c-1.09,0-2.04-1.02-2.04-2.19v-12.03c0-1.24.95-2.19,2.04-2.19h11.16c1.09,0,1.97,1.02,2.04,2.19v12.03c-.07,1.24-.95,2.19-2.04,2.19Zm-11.16-15.68c-.66,0-1.24.66-1.24,1.46v12.03c0,.8.58,1.46,1.24,1.46h11.16c.66,0,1.24-.66,1.24-1.46v-11.96c-.07-.8-.58-1.46-1.24-1.46h-11.16v-.07Z" style="fill:#162b40; stroke-width:0px;"/><path d="m384.07,187.36h2.92c.88,0,1.6-.73,1.6-1.6v-3.28c0-.88-.73-1.6-1.6-1.6h-2.92c-.88,0-1.6.73-1.6,1.6v3.28c0,.88.73,1.6,1.6,1.6Z" style="fill:#20e2ad; stroke-width:0px;"/><path d="m384.07,196.54h2.92c.88,0,1.6-.73,1.6-1.6v-3.28c0-.88-.73-1.6-1.6-1.6h-2.92c-.88,0-1.6.73-1.6,1.6v3.28c0,.88.73,1.6,1.6,1.6Z" style="fill:#08aeec; stroke-width:0px;"/><path d="m386.92,187.72h-2.92c-1.09,0-1.97-.95-1.97-1.97v-3.28c0-1.09.95-1.97,1.97-1.97h2.92c1.09,0,1.97.95,1.97,1.97v3.28c.07,1.09-.8,1.97-1.97,1.97Zm-2.84-6.49c-.66,0-1.17.58-1.17,1.17v3.28c0,.66.58,1.17,1.17,1.17h2.92c.66,0,1.17-.58,1.17-1.17v-3.28c0-.66-.58-1.17-1.17-1.17h-2.92Z" style="fill:#162b40; stroke-width:0px;"/><path d="m386.92,196.91h-2.92c-1.09,0-1.97-.95-1.97-1.97v-3.28c0-1.09.95-1.97,1.97-1.97h2.92c1.09,0,1.97.95,1.97,1.97v3.28c.07,1.09-.8,1.97-1.97,1.97Zm-2.84-6.49c-.66,0-1.17.58-1.17,1.17v3.28c0,.66.58,1.17,1.17,1.17h2.92c.66,0,1.17-.58,1.17-1.17v-3.28c0-.66-.58-1.17-1.17-1.17h-2.92Z" style="fill:#162b40; stroke-width:0px;"/><path d="m375.47,187.36h2.92c.88,0,1.6-.73,1.6-1.6v-3.28c0-.88-.73-1.6-1.6-1.6h-2.92c-.88,0-1.6.73-1.6,1.6v3.28c0,.88.73,1.6,1.6,1.6Z" style="fill:#08aeec; stroke-width:0px;"/><path d="m375.47,196.54h2.92c.88,0,1.6-.73,1.6-1.6v-3.28c0-.88-.73-1.6-1.6-1.6h-2.92c-.88,0-1.6.73-1.6,1.6v3.28c0,.88.73,1.6,1.6,1.6Z" style="fill:#20e2ad; stroke-width:0px;"/><path d="m378.31,187.72h-2.92c-1.09,0-1.97-.95-1.97-1.97v-3.28c0-1.09.95-1.97,1.97-1.97h2.92c1.09,0,1.97.95,1.97,1.97v3.28c.07,1.09-.88,1.97-1.97,1.97Zm-2.84-6.49c-.66,0-1.17.58-1.17,1.17v3.28c0,.66.58,1.17,1.17,1.17h2.92c.66,0,1.17-.58,1.17-1.17v-3.28c0-.66-.58-1.17-1.17-1.17h-2.92Z" style="fill:#162b40; stroke-width:0px;"/><path d="m378.31,196.91h-2.92c-1.09,0-1.97-.95-1.97-1.97v-3.28c0-1.09.95-1.97,1.97-1.97h2.92c1.09,0,1.97.95,1.97,1.97v3.28c.07,1.09-.88,1.97-1.97,1.97Zm-2.84-6.49c-.66,0-1.17.58-1.17,1.17v3.28c0,.66.58,1.17,1.17,1.17h2.92c.66,0,1.17-.58,1.17-1.17v-3.28c0-.66-.58-1.17-1.17-1.17h-2.92Z" style="fill:#162b40; stroke-width:0px;"/><path d="m51.52,78.64h-3.69l-6.18-9.36v9.36h-3.69v-15.19h3.69l6.18,9.36v-9.36h3.69v15.19Z" style="fill:#333; stroke-width:0px;"/><path d="m56.5,78.04c-.94-.51-1.72-1.2-2.23-2.15s-.77-2.06-.77-3.26.26-2.32.86-3.26c.51-.94,1.29-1.63,2.23-2.15s1.97-.77,3.18-.77,2.23.26,3.18.77c.94.51,1.72,1.2,2.23,2.15s.86,2.06.86,3.26-.26,2.32-.86,3.26c-.51.94-1.29,1.63-2.23,2.15s-2.06.77-3.18.77-2.32-.26-3.26-.77Zm4.98-3.18c.51-.51.77-1.29.77-2.23s-.26-1.72-.69-2.23c-.51-.51-1.12-.77-1.8-.77s-1.29.26-1.8.77c-.51.51-.69,1.29-.69,2.23s.26,1.72.69,2.23,1.03.77,1.8.77,1.29-.26,1.72-.77Z" style="fill:#333; stroke-width:0px;"/><path d="m68.08,78.21c-.43-.34-.6-.86-.6-1.37,0-.6.17-1.03.6-1.46s.94-.6,1.54-.6,1.12.17,1.54.6.6.86.6,1.46-.17,1.03-.6,1.37-.86.6-1.46.6c-.69,0-1.2-.17-1.63-.6Z" style="fill:#333; stroke-width:0px;"/><path d="m73.32,66.28v-3.43h6.01v15.79h-3.86v-12.36h-2.15Z" style="fill:#333; stroke-width:0px;"/><path d="m90.49,75.81h4.81v2.83h-8.5v-15.19h3.69v12.36Z" style="fill:#333; stroke-width:0px;"/><path d="m108.34,73.49h-8.33c.09.77.26,1.29.69,1.72s.94.6,1.54.6c.94,0,1.54-.43,1.89-1.2h3.95c-.17.77-.6,1.54-1.12,2.15-.51.6-1.2,1.12-1.97,1.46s-1.72.51-2.66.51c-1.2,0-2.23-.26-3.18-.77-.94-.51-1.63-1.2-2.15-2.15s-.77-2.06-.77-3.26c0-1.29.26-2.32.77-3.26s1.2-1.63,2.15-2.15,1.97-.77,3.18-.77,2.23.26,3.09.77c.94.51,1.63,1.2,2.15,2.06.51.94.77,1.97.77,3.18.09.43.09.77,0,1.12Zm-3.69-2.06c0-.6-.26-1.12-.69-1.54-.43-.34-.94-.6-1.63-.6-.6,0-1.12.17-1.54.51-.43.34-.69.86-.77,1.54h4.63v.09Z" style="fill:#333; stroke-width:0px;"/><path d="m110.31,69.37c.43-.94,1.12-1.63,1.89-2.15s1.72-.77,2.66-.77c.86,0,1.63.17,2.23.51.6.34,1.12.77,1.46,1.37v-1.72h3.69v12.02h-3.69v-1.72c-.34.6-.86,1.03-1.46,1.37-.6.34-1.37.51-2.23.51-.94,0-1.89-.26-2.66-.77-.77-.51-1.46-1.2-1.89-2.15s-.69-2.06-.69-3.26c0-1.29.26-2.32.69-3.26Zm7.55,1.03c-.51-.51-1.12-.77-1.89-.77s-1.37.26-1.89.77c-.51.51-.77,1.29-.77,2.15,0,.94.26,1.63.77,2.23.51.51,1.12.77,1.89.77s1.37-.26,1.89-.77c.51-.51.77-1.29.77-2.15,0-.94-.26-1.63-.77-2.23Z" style="fill:#333; stroke-width:0px;"/><path d="m124.99,69.37c.43-.94,1.12-1.63,1.89-2.15s1.72-.77,2.66-.77c.77,0,1.54.17,2.15.51.69.34,1.2.77,1.54,1.37v-5.58h3.69v15.96h-3.69v-1.72c-.34.6-.86,1.03-1.46,1.37-.6.34-1.37.51-2.23.51-1.03,0-1.89-.26-2.66-.77-.77-.51-1.46-1.2-1.89-2.15s-.69-2.06-.69-3.26c0-1.37.26-2.4.69-3.35Zm7.55,1.03c-.51-.51-1.12-.77-1.89-.77s-1.37.26-1.89.77c-.51.51-.77,1.29-.77,2.15,0,.94.26,1.63.77,2.23.51.51,1.12.77,1.89.77s1.37-.26,1.89-.77c.51-.51.77-1.29.77-2.15,0-.94-.26-1.63-.77-2.23Z" style="fill:#333; stroke-width:0px;"/><path d="m140.01,64.74c-.43-.34-.6-.86-.6-1.37,0-.6.17-1.03.6-1.46.43-.34.94-.6,1.54-.6s1.12.17,1.54.6c.43.34.6.86.6,1.46s-.17,1.03-.6,1.37c-.43.34-.94.6-1.54.6-.69,0-1.2-.17-1.54-.6Zm3.35,1.89v12.02h-3.69v-12.02h3.69Z" style="fill:#333; stroke-width:0px;"/><path d="m156.83,67.83c.86.94,1.29,2.15,1.29,3.78v7.04h-3.69v-6.52c0-.77-.17-1.46-.6-1.89s-.94-.69-1.72-.69c-.69,0-1.29.26-1.72.69s-.6,1.03-.6,1.89v6.52h-3.69v-12.02h3.69v1.63c.34-.51.86-.94,1.54-1.29s1.37-.43,2.15-.43c1.37-.09,2.49.34,3.35,1.29Z" style="fill:#333; stroke-width:0px;"/><path d="m167.48,66.97c.6.34,1.12.77,1.46,1.37v-1.72h3.69v12.02c0,1.12-.26,2.15-.69,3s-1.12,1.63-1.97,2.15-2.06.77-3.35.77c-1.8,0-3.26-.43-4.38-1.29s-1.72-1.97-1.89-3.43h3.69c.09.43.43.86.86,1.12s.94.43,1.63.43c.77,0,1.37-.26,1.8-.69s.69-1.12.69-2.15v-1.72c-.34.6-.86,1.03-1.46,1.37-.6.34-1.37.51-2.23.51-1.03,0-1.89-.26-2.66-.77-.77-.51-1.46-1.2-1.89-2.15s-.69-2.06-.69-3.26.26-2.32.69-3.26,1.12-1.63,1.89-2.15,1.72-.77,2.66-.77c.69.09,1.46.26,2.15.6Zm.69,3.43c-.51-.51-1.12-.77-1.89-.77s-1.37.26-1.89.77c-.51.51-.77,1.29-.77,2.15,0,.94.26,1.63.77,2.23.51.51,1.12.77,1.89.77s1.37-.26,1.89-.77c.51-.51.77-1.29.77-2.15,0-.94-.26-1.63-.77-2.23Z" style="fill:#333; stroke-width:0px;"/><path d="m183.53,66.45v3.09h4.98v2.83h-4.98v3.35h5.58v2.92h-9.27v-15.19h9.27v2.92h-5.58v.09Z" style="fill:#333; stroke-width:0px;"/><path d="m195.29,62.68v15.96h-3.78v-15.96h3.78Z" style="fill:#333; stroke-width:0px;"/><path d="m209.19,73.49h-8.33c.09.77.26,1.29.69,1.72s.94.6,1.54.6c.94,0,1.54-.43,1.89-1.2h3.95c-.17.77-.6,1.54-1.12,2.15s-1.2,1.12-1.97,1.46c-.77.34-1.72.51-2.66.51-1.2,0-2.23-.26-3.18-.77-.94-.51-1.63-1.2-2.15-2.15s-.77-2.06-.77-3.26c0-1.29.26-2.32.77-3.26.51-.94,1.2-1.63,2.15-2.15s1.97-.77,3.18-.77,2.23.26,3.09.77c.94.51,1.63,1.2,2.15,2.06.51.94.77,1.97.77,3.18.09.43.09.77,0,1.12Zm-3.69-2.06c0-.6-.26-1.12-.69-1.54-.43-.34-.94-.6-1.63-.6-.6,0-1.12.17-1.54.51-.43.34-.69.86-.77,1.54h4.63v.09Z" style="fill:#333; stroke-width:0px;"/><path d="m230.22,67.83c.86.94,1.29,2.15,1.29,3.78v7.04h-3.69v-6.52c0-.77-.17-1.37-.6-1.8s-.94-.6-1.72-.6-1.29.17-1.72.6-.6,1.03-.6,1.8v6.52h-3.69v-6.52c0-.77-.17-1.37-.6-1.8s-.94-.6-1.72-.6c-.69,0-1.29.17-1.72.6s-.6,1.03-.6,1.8v6.52h-3.6v-12.02h3.69v1.54c.34-.51.86-.94,1.46-1.2.6-.26,1.29-.43,2.06-.43.94,0,1.72.17,2.4.6s1.29.94,1.72,1.63c.43-.69.94-1.2,1.72-1.63.69-.43,1.54-.6,2.32-.6,1.46-.09,2.66.34,3.6,1.29Z" style="fill:#333; stroke-width:0px;"/><path d="m245.41,73.49h-8.41c.09.77.26,1.29.69,1.72s.94.6,1.54.6c.94,0,1.54-.43,1.89-1.2h3.95c-.17.77-.6,1.54-1.12,2.15-.51.6-1.2,1.12-1.97,1.46s-1.72.51-2.66.51c-1.2,0-2.23-.26-3.18-.77-.94-.51-1.63-1.2-2.15-2.15s-.77-2.06-.77-3.26c0-1.29.26-2.32.77-3.26s1.2-1.63,2.15-2.15,1.97-.77,3.18-.77,2.23.26,3.09.77c.94.51,1.63,1.2,2.15,2.06.51.94.77,1.97.77,3.18.17.43.09.77.09,1.12Zm-3.69-2.06c0-.6-.26-1.12-.69-1.54-.43-.34-.94-.6-1.63-.6-.6,0-1.12.17-1.54.51-.43.34-.69.86-.77,1.54h4.63v.09Z" style="fill:#333; stroke-width:0px;"/><path d="m258.12,67.83c.86.94,1.29,2.15,1.29,3.78v7.04h-3.69v-6.52c0-.77-.17-1.46-.6-1.89s-.94-.69-1.72-.69c-.69,0-1.29.26-1.72.69s-.6,1.03-.6,1.89v6.52h-3.69v-12.02h3.69v1.63c.34-.51.86-.94,1.54-1.29s1.37-.43,2.15-.43c1.37-.09,2.49.34,3.35,1.29Z" style="fill:#333; stroke-width:0px;"/><path d="m268.67,75.55v3.09h-1.89c-1.37,0-2.4-.34-3.09-.94-.77-.69-1.12-1.72-1.12-3.18v-4.81h-1.54v-3.09h1.46v-2.92h3.69v2.92h2.4v3.09h-2.4v4.81c0,.34.09.6.26.77s.43.26.86.26h1.37Z" style="fill:#333; stroke-width:0px;"/><path d="m273.05,78.04c-.94-.51-1.72-1.2-2.23-2.15s-.77-2.06-.77-3.26.26-2.32.86-3.26c.51-.94,1.29-1.63,2.23-2.15s1.97-.77,3.18-.77,2.23.26,3.18.77c.94.51,1.72,1.2,2.23,2.15s.86,2.06.86,3.26-.26,2.32-.86,3.26c-.51.94-1.29,1.63-2.23,2.15s-2.06.77-3.18.77-2.32-.26-3.26-.77Zm4.98-3.18c.51-.51.77-1.29.77-2.23s-.26-1.72-.69-2.23c-.51-.51-1.12-.77-1.8-.77s-1.29.26-1.8.77c-.51.51-.69,1.29-.69,2.23s.26,1.72.69,2.23,1.03.77,1.8.77,1.2-.26,1.72-.77Z" style="fill:#333; stroke-width:0px;"/><path d="m289.79,67.05c.69-.34,1.37-.6,2.15-.6v3.95h-1.03c-.94,0-1.63.17-2.06.6s-.69,1.12-.69,2.06v5.58h-3.69v-12.02h3.69v1.97c.43-.69,1.03-1.2,1.63-1.54Z" style="fill:#333; stroke-width:0px;"/><path d="m307.73,75.98h-5.66l-.94,2.66h-3.86l5.49-15.19h4.29l5.49,15.19h-3.95l-.86-2.66Zm-.94-2.83l-1.89-5.58-1.89,5.58h3.78Z" style="fill:#333; stroke-width:0px;"/><path d="m314.16,69.37c.43-.94,1.12-1.63,1.89-2.15.77-.51,1.72-.77,2.66-.77.77,0,1.54.17,2.15.51.69.34,1.2.77,1.54,1.37v-5.58h3.69v15.96h-3.69v-1.72c-.34.6-.86,1.03-1.46,1.37-.6.34-1.37.51-2.23.51-1.03,0-1.89-.26-2.66-.77-.77-.51-1.46-1.2-1.89-2.15s-.69-2.06-.69-3.26c0-1.37.26-2.4.69-3.35Zm7.55,1.03c-.51-.51-1.12-.77-1.89-.77s-1.37.26-1.89.77c-.51.51-.77,1.29-.77,2.15,0,.94.26,1.63.77,2.23.51.51,1.12.77,1.89.77s1.37-.26,1.89-.77c.51-.51.77-1.29.77-2.15,0-.94-.26-1.63-.77-2.23Z" style="fill:#333; stroke-width:0px;"/><path d="m328.84,69.37c.43-.94,1.12-1.63,1.89-2.15.77-.51,1.72-.77,2.66-.77.77,0,1.54.17,2.15.51.69.34,1.2.77,1.54,1.37v-5.58h3.69v15.96h-3.69v-1.72c-.34.6-.86,1.03-1.46,1.37-.6.34-1.37.51-2.23.51-1.03,0-1.89-.26-2.66-.77-.77-.51-1.46-1.2-1.89-2.15s-.69-2.06-.69-3.26c0-1.37.26-2.4.69-3.35Zm7.55,1.03c-.51-.51-1.12-.77-1.89-.77s-1.37.26-1.89.77c-.51.51-.77,1.29-.77,2.15,0,.94.26,1.63.77,2.23.51.51,1.12.77,1.89.77s1.37-.26,1.89-.77c.51-.51.77-1.29.77-2.15,0-.94-.26-1.63-.77-2.23Z" style="fill:#333; stroke-width:0px;"/><path d="m345.84,78.04c-.94-.51-1.72-1.2-2.23-2.15s-.77-2.06-.77-3.26.26-2.32.86-3.26c.51-.94,1.29-1.63,2.23-2.15s1.97-.77,3.18-.77,2.23.26,3.18.77c.94.51,1.72,1.2,2.23,2.15s.86,2.06.86,3.26-.26,2.32-.86,3.26c-.51.94-1.29,1.63-2.23,2.15s-2.06.77-3.18.77c-1.2,0-2.32-.26-3.26-.77Zm4.98-3.18c.51-.51.77-1.29.77-2.23s-.26-1.72-.69-2.23c-.51-.51-1.12-.77-1.8-.77s-1.29.26-1.8.77c-.51.51-.69,1.29-.69,2.23s.26,1.72.69,2.23,1.03.77,1.8.77,1.29-.26,1.72-.77Z" style="fill:#333; stroke-width:0px;"/><path d="m368.07,67.83c.86.94,1.29,2.15,1.29,3.78v7.04h-3.69v-6.52c0-.77-.17-1.46-.6-1.89s-.94-.69-1.72-.69c-.69,0-1.29.26-1.72.69s-.6,1.03-.6,1.89v6.52h-3.69v-12.02h3.69v1.63c.34-.51.86-.94,1.54-1.29s1.37-.43,2.15-.43c1.37-.09,2.49.34,3.35,1.29Z" style="fill:#333; stroke-width:0px;"/><path d="m43.76,104.02c-.23-.47-.55-.86-1.02-1.09-.39-.23-.94-.39-1.48-.39s-1.09.16-1.56.39-.78.62-1.09,1.09c-.23.47-.39,1.02-.39,1.72s.16,1.17.39,1.72c.23.47.62.86,1.09,1.09.47.23.94.39,1.56.39.78,0,1.48-.23,1.95-.7.55-.47.78-1.09.94-1.95h-3.28v-.86h4.37v.78c-.08.7-.23,1.25-.62,1.87s-.86,1.02-1.41,1.33c-.55.31-1.25.47-1.95.47-.78,0-1.41-.16-2.03-.55s-1.09-.86-1.48-1.48-.55-1.33-.55-2.11.16-1.48.55-2.11c.39-.62.86-1.09,1.48-1.48.62-.39,1.33-.55,2.03-.55.86,0,1.64.23,2.26.62s1.17,1.02,1.48,1.8c0,0-1.25,0-1.25,0Z" style="fill:#fff; stroke-width:0px;"/><path d="m52.5,106.98h-5.15c0,.62.23,1.09.62,1.48s.86.55,1.41.55c.47,0,.86-.08,1.17-.31s.55-.47.62-.86h1.17c-.16.62-.55,1.09-1.02,1.48-.55.39-1.17.55-1.95.55-.62,0-1.17-.16-1.64-.39s-.86-.62-1.09-1.17c-.23-.47-.39-1.09-.39-1.72s.16-1.25.39-1.72.62-.86,1.09-1.17c.47-.23,1.02-.39,1.64-.39s1.17.16,1.64.39.86.62,1.09,1.09c.23.47.39,1.02.39,1.56v.62Zm-1.33-1.95c-.16-.31-.39-.55-.7-.7-.31-.16-.62-.23-1.02-.23-.55,0-1.02.16-1.41.55-.39.31-.62.78-.62,1.41h4.06c-.08-.39-.16-.7-.31-1.02Z" style="fill:#fff; stroke-width:0px;"/><path d="m55.23,104.25v3.75c0,.31.08.55.23.62s.39.16.7.16h.78v.94h-.94c-.62,0-1.02-.16-1.33-.39s-.47-.7-.47-1.33v-3.75h-.86v-.86h.86v-1.64h1.09v1.64h1.64v.86h-1.72Z" style="fill:#fff; stroke-width:0px;"/><path d="m62.57,104.25v3.75c0,.31.08.55.23.62s.39.16.7.16h.78v.94h-.94c-.62,0-1.02-.16-1.33-.39s-.47-.7-.47-1.33v-3.75h-.86v-.86h.86v-1.64h1.09v1.64h1.64v.86h-1.72Z" style="fill:#fff; stroke-width:0px;"/><path d="m69.99,103.55c.39.23.7.55.94.94.23.39.31.94.31,1.48v3.75h-1.02v-3.59c0-.62-.16-1.09-.47-1.48-.31-.31-.78-.55-1.33-.55s-1.02.16-1.33.55c-.31.31-.47.86-.47,1.56v3.51h-1.09v-8.59h1.09v3.12c.23-.31.47-.55.86-.78.39-.16.78-.23,1.25-.23.47,0,.94.08,1.25.31Z" style="fill:#fff; stroke-width:0px;"/><path d="m78.81,106.98h-5.08c0,.62.23,1.09.62,1.48s.86.55,1.41.55c.47,0,.86-.08,1.17-.31s.55-.47.62-.86h1.17c-.16.62-.55,1.09-1.02,1.48-.55.39-1.17.55-1.95.55-.62,0-1.17-.16-1.64-.39s-.86-.62-1.09-1.17c-.23-.47-.39-1.09-.39-1.72s.16-1.25.39-1.72.62-.86,1.09-1.17c.47-.23,1.02-.39,1.64-.39s1.17.16,1.64.39.86.62,1.09,1.09.39,1.02.39,1.56c0,.16-.08.39-.08.62Zm-1.33-1.95c-.16-.31-.39-.55-.7-.7-.31-.16-.62-.23-1.02-.23-.55,0-1.02.16-1.41.55-.39.31-.62.78-.62,1.41h4.06c0-.39-.16-.7-.31-1.02Z" style="fill:#fff; stroke-width:0px;"/><path d="m85.37,103.63c.39-.23.94-.39,1.41-.39.55,0,1.09.16,1.56.39s.86.62,1.09,1.17c.23.47.39,1.09.39,1.72s-.16,1.25-.39,1.72-.62.94-1.09,1.17c-.47.31-1.02.39-1.56.39s-1.02-.16-1.48-.39c-.39-.23-.7-.55-.94-.94v1.17h-1.09v-8.51h1.09v3.44c.31-.39.62-.7,1.02-.94Zm3.12,1.64c-.16-.39-.47-.62-.78-.78s-.7-.31-1.09-.31-.78.08-1.09.31c-.31.16-.62.47-.78.86s-.31.78-.31,1.25.08.94.31,1.25.47.62.78.86c.31.16.7.31,1.09.31s.78-.08,1.09-.31c.31-.16.62-.47.78-.86s.31-.78.31-1.25c0-.55-.16-.94-.31-1.33Z" style="fill:#fff; stroke-width:0px;"/><path d="m97.08,106.98h-5.15c0,.62.23,1.09.62,1.48s.86.55,1.41.55c.47,0,.86-.08,1.17-.31s.55-.47.62-.86h1.17c-.16.62-.55,1.09-1.02,1.48-.55.39-1.17.55-1.95.55-.62,0-1.17-.16-1.64-.39s-.86-.62-1.09-1.17c-.23-.47-.39-1.09-.39-1.72s.16-1.25.39-1.72.62-.86,1.09-1.17c.47-.23,1.02-.39,1.64-.39s1.17.16,1.64.39.86.62,1.09,1.09.39,1.02.39,1.56c0,.16,0,.39,0,.62Zm-1.33-1.95c-.16-.31-.39-.55-.7-.7-.31-.16-.62-.23-1.02-.23-.55,0-1.02.16-1.41.55-.39.31-.62.78-.62,1.41h4.06c-.08-.39-.16-.7-.31-1.02Z" style="fill:#fff; stroke-width:0px;"/><path d="m99.43,109.64c-.39-.16-.7-.39-.94-.7-.23-.31-.31-.62-.39-1.02h1.09c0,.31.16.55.47.78.23.23.62.31,1.09.31.39,0,.7-.08.94-.23.23-.16.31-.39.31-.7s-.16-.47-.39-.62c-.23-.16-.62-.23-1.17-.39-.47-.16-.86-.23-1.17-.39s-.55-.31-.78-.55c-.23-.23-.31-.62-.31-1.02,0-.31.08-.62.31-.94.16-.23.47-.47.86-.62.39-.16.78-.23,1.25-.23.7,0,1.25.16,1.72.55s.7.86.7,1.48h-1.09c0-.31-.16-.62-.39-.78-.23-.23-.55-.31-1.02-.31-.39,0-.7.08-.94.23-.23.16-.31.39-.31.62s.08.39.23.55c.16.16.31.23.55.31.23.08.47.16.86.31.47.16.86.23,1.09.39.31.16.55.31.7.55.23.23.31.55.31.94,0,.31-.08.7-.31.94-.16.31-.47.47-.86.62-.39.16-.78.23-1.25.23-.31-.08-.78-.16-1.17-.31Z" style="fill:#fff; stroke-width:0px;"/><path d="m105.91,104.25v3.75c0,.31.08.55.23.62s.39.16.7.16h.78v.94h-.94c-.62,0-1.02-.16-1.33-.39s-.47-.7-.47-1.33v-3.75h-.86v-.86h.86v-1.64h1.09v1.64h1.64v.86h-1.72Z" style="fill:#fff; stroke-width:0px;"/><path d="m113.01,102.45v2.73h2.97v.86h-2.97v2.81h3.28v.86h-4.29v-8.12h4.37v.86h-3.36Z" style="fill:#fff; stroke-width:0px;"/><path d="m119.02,101.13v8.67h-1.09v-8.67h1.09Z" style="fill:#fff; stroke-width:0px;"/><path d="m126.67,106.98h-5.15c0,.62.23,1.09.62,1.48s.86.55,1.41.55c.47,0,.86-.08,1.17-.31s.55-.47.62-.86h1.17c-.16.62-.55,1.09-1.02,1.48-.55.39-1.17.55-1.95.55-.62,0-1.17-.16-1.64-.39s-.86-.62-1.09-1.17c-.23-.47-.39-1.09-.39-1.72s.16-1.25.39-1.72.62-.86,1.09-1.17c.47-.23,1.02-.39,1.64-.39s1.17.16,1.64.39.86.62,1.09,1.09c.23.47.39,1.02.39,1.56v.62Zm-1.33-1.95c-.16-.31-.39-.55-.7-.7-.31-.16-.62-.23-1.02-.23-.55,0-1.02.16-1.41.55-.39.31-.62.78-.62,1.41h4.06c-.08-.39-.16-.7-.31-1.02Z" style="fill:#fff; stroke-width:0px;"/><path d="m137.14,103.55c.39.23.7.55.94.94s.31.94.31,1.48v3.75h-1.02v-3.59c0-.62-.16-1.09-.47-1.48s-.7-.55-1.25-.55-1.02.16-1.33.55-.47.86-.47,1.56v3.51h-1.02v-3.59c0-.62-.16-1.09-.47-1.48s-.7-.55-1.25-.55-1.02.16-1.33.55-.47.86-.47,1.56v3.51h-1.09v-6.4h1.09v.94c.23-.31.47-.62.86-.78s.78-.23,1.17-.23c.55,0,1.02.16,1.41.39s.7.62.94,1.09c.16-.47.47-.78.86-1.02s.86-.39,1.41-.39c.31-.08.78,0,1.17.23Z" style="fill:#fff; stroke-width:0px;"/><path d="m145.88,106.98h-5.15c0,.62.23,1.09.62,1.48s.86.55,1.41.55c.47,0,.86-.08,1.17-.31s.55-.47.62-.86h1.17c-.16.62-.55,1.09-1.02,1.48-.55.39-1.17.55-1.95.55-.62,0-1.17-.16-1.64-.39s-.86-.62-1.09-1.17c-.23-.47-.39-1.09-.39-1.72s.16-1.25.39-1.72.62-.86,1.09-1.17c.47-.23,1.02-.39,1.64-.39s1.17.16,1.64.39.86.62,1.09,1.09c.23.47.39,1.02.39,1.56.08.16.08.39,0,.62Zm-1.33-1.95c-.16-.31-.39-.55-.7-.7-.31-.16-.62-.23-1.02-.23-.55,0-1.02.16-1.41.55-.39.31-.62.78-.62,1.41h4.06c0-.39-.08-.7-.31-1.02Z" style="fill:#fff; stroke-width:0px;"/><path d="m152.36,103.94c.47.47.7,1.17.7,2.03v3.75h-1.02v-3.59c0-.62-.16-1.09-.47-1.48-.31-.31-.78-.55-1.33-.55s-1.02.16-1.33.55c-.31.31-.47.86-.47,1.56v3.51h-1.09v-6.4h1.09v.94c.23-.31.47-.55.86-.78.39-.16.78-.23,1.17-.23.78,0,1.41.23,1.87.7Z" style="fill:#fff; stroke-width:0px;"/><path d="m156.11,104.25v3.75c0,.31.08.55.23.62s.39.16.7.16h.78v.94h-.94c-.62,0-1.02-.16-1.33-.39s-.47-.7-.47-1.33v-3.75h-.86v-.86h.86v-1.64h1.09v1.64h1.64v.86h-1.72Z" style="fill:#fff; stroke-width:0px;"/><path d="m160.25,109.48c-.47-.23-.86-.62-1.17-1.17-.31-.47-.39-1.09-.39-1.72s.16-1.25.39-1.72c.31-.47.7-.86,1.17-1.17.47-.23,1.02-.39,1.64-.39s1.17.16,1.64.39.86.62,1.17,1.17c.31.47.39,1.09.39,1.72s-.16,1.25-.47,1.72c-.31.47-.7.86-1.17,1.17-.47.23-1.02.39-1.64.39-.55,0-1.09-.16-1.56-.39Zm2.65-.78c.31-.16.62-.47.78-.78.23-.39.31-.78.31-1.33s-.08-.94-.31-1.33c-.23-.39-.47-.62-.78-.78s-.7-.23-1.09-.23-.78.08-1.09.23c-.31.16-.55.47-.78.78-.16.39-.31.78-.31,1.33s.08.94.31,1.33.47.62.78.78.7.23,1.02.23c.55,0,.86-.08,1.17-.23Z" style="fill:#fff; stroke-width:0px;"/><path d="m168.37,103.55c.31-.23.78-.31,1.25-.31v1.09h-.31c-1.17,0-1.8.62-1.8,1.95v3.51h-1.09v-6.4h1.09v1.02c.31-.39.55-.62.86-.86Z" style="fill:#fff; stroke-width:0px;"/><path d="m173.99,104.8c.23-.47.62-.86,1.09-1.17.47-.23,1.02-.39,1.56-.39s1.02.16,1.48.39c.39.23.7.55.94.94v-1.17h1.09v6.4h-1.09v-1.17c-.23.39-.55.7-.94.94-.39.23-.94.39-1.48.39s-1.09-.16-1.56-.39c-.47-.31-.86-.7-1.09-1.17-.23-.47-.39-1.09-.39-1.72,0-.78.16-1.33.39-1.87Zm4.76.47c-.16-.39-.47-.62-.78-.86-.31-.16-.7-.31-1.09-.31s-.78.08-1.09.31c-.31.16-.62.47-.78.78-.16.39-.31.78-.31,1.25s.08.94.31,1.25c.16.39.47.62.78.86.31.16.7.31,1.09.31s.78-.08,1.09-.31c.31-.16.62-.47.78-.86s.31-.78.31-1.25c0-.39-.16-.78-.31-1.17Z" style="fill:#fff; stroke-width:0px;"/><path d="m181.88,104.8c.23-.47.62-.86,1.09-1.17.47-.23,1.02-.39,1.56-.39.47,0,.94.08,1.41.31.39.23.78.55,1.02.94v-3.36h1.09v8.67h-1.09v-1.17c-.23.39-.55.7-.94.94-.39.23-.86.39-1.48.39-.55,0-1.09-.16-1.56-.39-.47-.31-.86-.7-1.09-1.17-.23-.47-.39-1.09-.39-1.72,0-.78.16-1.33.39-1.87Zm4.76.47c-.16-.39-.47-.62-.78-.86-.31-.16-.7-.31-1.09-.31s-.78.08-1.09.31c-.31.16-.62.47-.78.78-.16.39-.31.78-.31,1.25s.08.94.31,1.25c.16.39.47.62.78.86.31.16.7.31,1.09.31s.78-.08,1.09-.31c.31-.16.62-.47.78-.86s.31-.78.31-1.25c0-.39-.08-.78-.31-1.17Z" style="fill:#fff; stroke-width:0px;"/><path d="m189.84,104.8c.23-.47.62-.86,1.09-1.17.47-.23,1.02-.39,1.56-.39.47,0,.94.08,1.41.31.39.23.78.55,1.02.94v-3.36h1.09v8.67h-1.09v-1.17c-.23.39-.55.7-.94.94-.39.23-.86.39-1.48.39-.55,0-1.09-.16-1.56-.39-.47-.31-.86-.7-1.09-1.17-.23-.47-.39-1.09-.39-1.72-.08-.78.08-1.33.39-1.87Zm4.68.47c-.16-.39-.47-.62-.78-.86-.31-.16-.7-.31-1.09-.31s-.78.08-1.09.31c-.31.16-.62.47-.78.78-.16.39-.31.78-.31,1.25s.08.94.31,1.25c.16.39.47.62.78.86.31.16.7.31,1.09.31s.78-.08,1.09-.31c.31-.16.62-.47.78-.86s.31-.78.31-1.25c0-.39-.08-.78-.31-1.17Z" style="fill:#fff; stroke-width:0px;"/><path d="m198.9,109.48c-.47-.23-.86-.62-1.17-1.17-.31-.47-.39-1.09-.39-1.72s.16-1.25.39-1.72c.31-.47.7-.86,1.17-1.17.47-.23,1.02-.39,1.64-.39s1.17.16,1.64.39c.47.23.86.62,1.17,1.17.31.47.39,1.09.39,1.72s-.16,1.25-.47,1.72-.7.86-1.17,1.17c-.47.23-1.02.39-1.64.39-.55,0-1.09-.16-1.56-.39Zm2.65-.78c.31-.16.62-.47.78-.78.23-.39.31-.78.31-1.33s-.08-.94-.31-1.33c-.23-.39-.47-.62-.78-.78s-.7-.23-1.09-.23-.78.08-1.09.23c-.31.16-.55.47-.78.78-.16.39-.31.78-.31,1.33s.08.94.31,1.33.47.62.78.78.7.23,1.02.23c.47,0,.86-.08,1.17-.23Z" style="fill:#fff; stroke-width:0px;"/><path d="m210.22,103.94c.47.47.7,1.17.7,2.03v3.75h-1.02v-3.59c0-.62-.16-1.09-.47-1.48-.31-.31-.78-.55-1.33-.55s-1.02.16-1.33.55c-.31.31-.47.86-.47,1.56v3.51h-1.09v-6.4h1.09v.94c.23-.31.47-.55.86-.78.39-.16.78-.23,1.17-.23.7,0,1.33.23,1.87.7Z" style="fill:#fff; stroke-width:0px;"/><path d="m213.58,109.64c-.39-.16-.7-.39-.94-.7-.23-.31-.31-.62-.39-1.02h1.09c0,.31.16.55.47.78.23.23.62.31,1.09.31.39,0,.7-.08.94-.23.23-.16.31-.39.31-.7s-.16-.47-.39-.62c-.23-.16-.62-.23-1.17-.39-.47-.16-.86-.23-1.17-.39s-.55-.31-.78-.55c-.23-.23-.31-.62-.31-1.02,0-.31.08-.62.31-.94.16-.23.47-.47.86-.62.39-.16.78-.23,1.25-.23.7,0,1.25.16,1.72.55s.7.86.7,1.48h-1.09c0-.31-.16-.62-.39-.78-.23-.23-.55-.31-1.02-.31-.39,0-.7.08-.94.23-.23.16-.31.39-.31.62s.08.39.23.55c.16.16.31.23.55.31.23.08.47.16.86.31.47.16.86.23,1.09.39.31.16.55.31.7.55.23.23.31.55.31.94,0,.31-.08.7-.31.94-.16.31-.47.47-.86.62-.39.16-.78.23-1.25.23-.31-.08-.78-.16-1.17-.31Z" style="fill:#fff; stroke-width:0px;"/><path d="m223.18,104.25v3.75c0,.31.08.55.23.62s.39.16.7.16h.78v.94h-.94c-.62,0-1.02-.16-1.33-.39s-.55-.7-.55-1.33v-3.75h-.86v-.86h.86v-1.64h1.09v1.64h1.64v.86h-1.64Z" style="fill:#fff; stroke-width:0px;"/><path d="m227.24,109.48c-.47-.23-.86-.62-1.17-1.17-.31-.47-.39-1.09-.39-1.72s.16-1.25.39-1.72c.31-.47.7-.86,1.17-1.17.47-.23,1.02-.39,1.64-.39s1.17.16,1.64.39.86.62,1.17,1.17c.31.47.39,1.09.39,1.72s-.16,1.25-.47,1.72-.7.86-1.17,1.17c-.47.23-1.02.39-1.64.39-.47,0-1.02-.16-1.56-.39Zm2.73-.78c.31-.16.62-.47.78-.78.23-.39.31-.78.31-1.33s-.08-.94-.31-1.33-.47-.62-.78-.78-.7-.23-1.09-.23-.78.08-1.09.23c-.31.16-.55.47-.78.78-.16.39-.31.78-.31,1.33s.08.94.31,1.33.47.62.78.78.7.23,1.02.23c.47,0,.86-.08,1.17-.23Z" style="fill:#fff; stroke-width:0px;"/><path d="m233.56,104.8c.23-.47.62-.86,1.09-1.17.47-.23,1.02-.39,1.56-.39.47,0,.94.08,1.41.31.39.23.78.55,1.02.94v-3.36h1.09v8.67h-1.09v-1.17c-.23.39-.55.7-.94.94-.39.23-.86.39-1.48.39-.55,0-1.09-.16-1.56-.39-.47-.31-.86-.7-1.09-1.17s-.39-1.09-.39-1.72c0-.78.16-1.33.39-1.87Zm4.76.47c-.16-.39-.47-.62-.78-.86-.31-.16-.7-.31-1.09-.31s-.78.08-1.09.31c-.31.16-.62.47-.78.78-.16.39-.31.78-.31,1.25s.08.94.31,1.25c.16.39.47.62.78.86.31.16.7.31,1.09.31s.78-.08,1.09-.31c.31-.16.62-.47.78-.86s.31-.78.31-1.25c0-.39-.16-.78-.31-1.17Z" style="fill:#fff; stroke-width:0px;"/><path d="m241.45,104.8c.23-.47.62-.86,1.09-1.17.47-.23,1.02-.39,1.56-.39s1.02.16,1.48.39c.39.23.7.55.94.94v-1.17h1.09v6.4h-1.09v-1.17c-.23.39-.55.7-.94.94-.39.23-.94.39-1.48.39s-1.09-.16-1.56-.39c-.47-.31-.86-.7-1.09-1.17s-.39-1.09-.39-1.72c0-.78.16-1.33.39-1.87Zm4.76.47c-.16-.39-.47-.62-.78-.86-.31-.16-.7-.31-1.09-.31s-.78.08-1.09.31c-.31.16-.62.47-.78.78-.16.39-.31.78-.31,1.25s.08.94.31,1.25c.16.39.47.62.78.86.31.16.7.31,1.09.31s.78-.08,1.09-.31c.31-.16.62-.47.78-.86s.31-.78.31-1.25c0-.39-.16-.78-.31-1.17Z" style="fill:#fff; stroke-width:0px;"/><path d="m254.88,103.39l-3.83,9.45h-1.09l1.25-3.05-2.58-6.32h1.17l2.03,5.15,1.95-5.15h1.09v-.08Z" style="fill:#fff; stroke-width:0px;"/><path d="m259.09,104.8c.23-.47.62-.86,1.09-1.17.47-.23,1.02-.39,1.56-.39s1.02.16,1.48.39c.39.23.7.55.94.94v-1.17h1.09v6.4h-1.09v-1.17c-.23.39-.55.7-.94.94-.39.23-.94.39-1.48.39s-1.09-.16-1.56-.39c-.47-.31-.86-.7-1.09-1.17s-.39-1.09-.39-1.72c0-.78.08-1.33.39-1.87Zm4.68.47c-.16-.39-.47-.62-.78-.86-.31-.16-.7-.31-1.09-.31s-.78.08-1.09.31c-.31.16-.62.47-.78.78-.16.39-.31.78-.31,1.25s.08.94.31,1.25c.16.39.47.62.78.86.31.16.7.31,1.09.31s.78-.08,1.09-.31c.31-.16.62-.47.78-.86s.31-.78.31-1.25c0-.39-.08-.78-.31-1.17Z" style="fill:#fff; stroke-width:0px;"/><path d="m271.98,103.94c.47.47.7,1.17.7,2.03v3.75h-1.02v-3.59c0-.62-.16-1.09-.47-1.48-.31-.31-.78-.55-1.33-.55s-1.02.16-1.33.55c-.31.31-.47.86-.47,1.56v3.51h-1.09v-6.4h1.09v.94c.23-.31.47-.55.86-.78.39-.16.78-.23,1.17-.23.78,0,1.41.23,1.87.7Z" style="fill:#fff; stroke-width:0px;"/><path d="m274.4,104.8c.23-.47.62-.86,1.09-1.17.47-.23,1.02-.39,1.56-.39.47,0,.94.08,1.41.31.39.23.78.55,1.02.94v-3.36h1.09v8.67h-1.09v-1.17c-.23.39-.55.7-.94.94-.39.23-.86.39-1.48.39-.55,0-1.09-.16-1.56-.39-.47-.31-.86-.7-1.09-1.17s-.39-1.09-.39-1.72c0-.78.16-1.33.39-1.87Zm4.76.47c-.16-.39-.47-.62-.78-.86-.31-.16-.7-.31-1.09-.31s-.78.08-1.09.31c-.31.16-.62.47-.78.78-.16.39-.31.78-.31,1.25s.08.94.31,1.25c.16.39.47.62.78.86.31.16.7.31,1.09.31s.78-.08,1.09-.31c.31-.16.62-.47.78-.86s.31-.78.31-1.25c0-.39-.16-.78-.31-1.17Z" style="fill:#fff; stroke-width:0px;"/><path d="m38.52,125.1c-.39-.16-.7-.39-.94-.7s-.31-.62-.39-1.02h1.09c0,.31.16.55.47.78.23.23.62.31,1.09.31.39,0,.7-.08.94-.23.23-.16.31-.39.31-.7s-.16-.47-.39-.62c-.23-.16-.62-.23-1.17-.39-.47-.16-.86-.23-1.17-.39s-.55-.31-.78-.55c-.23-.23-.31-.62-.31-1.02,0-.31.08-.62.31-.94.16-.23.47-.47.86-.62.39-.16.78-.23,1.25-.23.7,0,1.25.16,1.72.55.47.39.7.86.7,1.48h-1.09c0-.31-.16-.62-.39-.78-.23-.23-.55-.31-1.02-.31-.39,0-.7.08-.94.23-.23.16-.31.39-.31.62s.08.39.23.55.31.23.55.31.47.16.86.31c.47.16.86.23,1.09.39.31.16.55.31.7.55.23.23.31.55.31.94,0,.31-.08.7-.31.94-.16.31-.47.47-.86.62-.39.16-.78.23-1.25.23-.31-.08-.78-.16-1.17-.31Z" style="fill:#fff; stroke-width:0px;"/><path d="m45,119.71v3.75c0,.31.08.55.23.62s.39.16.7.16h.78v.94h-.94c-.62,0-1.02-.16-1.33-.39s-.47-.7-.47-1.33v-3.75h-.86v-.86h.86v-1.64h1.09v1.64h1.64v.86h-1.72Z" style="fill:#fff; stroke-width:0px;"/><path d="m47.97,120.26c.23-.47.62-.86,1.09-1.17.47-.23,1.02-.39,1.56-.39s1.02.16,1.48.39c.39.23.7.55.94.94v-1.17h1.09v6.4h-1.09v-1.17c-.23.39-.55.7-.94.94-.39.23-.94.39-1.48.39s-1.09-.16-1.56-.39c-.47-.31-.86-.7-1.09-1.17-.23-.47-.39-1.09-.39-1.72,0-.78.08-1.41.39-1.87Zm4.68.47c-.16-.39-.47-.62-.78-.86-.31-.16-.7-.31-1.09-.31s-.78.08-1.09.31c-.31.16-.62.47-.78.78-.16.39-.31.78-.31,1.25s.08.94.31,1.25c.16.39.47.62.78.86.31.16.7.31,1.09.31s.78-.08,1.09-.31c.31-.16.62-.47.78-.86.16-.39.31-.78.31-1.25,0-.39-.08-.78-.31-1.17Z" style="fill:#fff; stroke-width:0px;"/><path d="m57.73,119.01c.31-.23.78-.31,1.25-.31v1.09h-.31c-1.17,0-1.8.62-1.8,1.95v3.51h-1.09v-6.4h1.09v1.02c.23-.39.47-.7.86-.86Z" style="fill:#fff; stroke-width:0px;"/><path d="m61.48,119.71v3.75c0,.31.08.55.23.62s.39.16.7.16h.78v.94h-.94c-.62,0-1.02-.16-1.33-.39s-.47-.7-.47-1.33v-3.75h-.86v-.86h.86v-1.64h1.09v1.64h1.64v.86h-1.72Z" style="fill:#fff; stroke-width:0px;"/><path d="m73.11,118.77l-3.83,9.45h-1.09l1.25-3.05-2.58-6.32h1.17l2.03,5.15,1.95-5.15h1.09v-.08Z" style="fill:#fff; stroke-width:0px;"/><path d="m75.3,124.94c-.47-.23-.86-.62-1.17-1.17-.31-.47-.39-1.09-.39-1.72s.16-1.25.39-1.72c.31-.47.7-.86,1.17-1.17.47-.23,1.02-.39,1.64-.39s1.17.16,1.64.39.86.62,1.17,1.17c.31.47.39,1.09.39,1.72s-.16,1.25-.47,1.72-.7.86-1.17,1.17c-.47.23-1.02.39-1.64.39-.55,0-1.09-.16-1.56-.39Zm2.73-.86c.31-.16.62-.47.78-.78.23-.39.31-.78.31-1.33s-.08-.94-.31-1.33-.47-.62-.78-.78-.7-.23-1.09-.23-.78.08-1.09.23c-.31.16-.55.47-.78.78-.16.39-.31.78-.31,1.33s.08.94.31,1.33.47.62.78.78.7.23,1.02.23c.47.08.78,0,1.17-.23Z" style="fill:#fff; stroke-width:0px;"/><path d="m87.32,118.77v6.4h-1.09v-.94c-.23.31-.47.55-.86.78-.39.16-.78.31-1.17.31-.47,0-.94-.08-1.33-.31s-.7-.55-.94-.94c-.23-.39-.31-.94-.31-1.48v-3.75h1.02v3.59c0,.62.16,1.09.47,1.48.31.31.78.55,1.33.55s1.02-.16,1.33-.55c.31-.31.47-.86.47-1.56v-3.51h1.09v-.08Z" style="fill:#fff; stroke-width:0px;"/><path d="m90.91,119.01c.31-.23.78-.31,1.25-.31v1.09h-.31c-1.17,0-1.8.62-1.8,1.95v3.51h-1.09v-6.4h1.09v1.02c.31-.39.55-.7.86-.86Z" style="fill:#fff; stroke-width:0px;"/><path d="m105.05,118.77l-2.03,6.4h-1.09l-1.56-5.08-1.56,5.08h-1.09l-2.03-6.4h1.09l1.48,5.39,1.56-5.39h1.09l1.56,5.39,1.48-5.39h1.09Z" style="fill:#fff; stroke-width:0px;"/><path d="m111.92,122.44h-5.15c0,.62.23,1.09.62,1.48s.86.55,1.41.55c.47,0,.86-.08,1.17-.31s.55-.47.62-.86h1.17c-.16.62-.55,1.09-1.02,1.48-.55.39-1.17.55-1.95.55-.62,0-1.17-.16-1.64-.39s-.86-.62-1.09-1.17c-.23-.47-.39-1.09-.39-1.72s.16-1.25.39-1.72.62-.86,1.09-1.17,1.02-.39,1.64-.39,1.17.16,1.64.39.86.62,1.09,1.09c.23.47.39,1.02.39,1.56.08.16.08.39,0,.62Zm-1.33-1.95c-.16-.31-.39-.55-.7-.7-.31-.16-.62-.23-1.02-.23-.55,0-1.02.16-1.41.55-.39.31-.62.78-.62,1.41h4.06c0-.39-.08-.7-.31-1.02Z" style="fill:#fff; stroke-width:0px;"/><path d="m115.43,119.08c.39-.23.94-.39,1.41-.39.55,0,1.09.16,1.56.39s.86.62,1.09,1.17c.23.47.39,1.09.39,1.72s-.16,1.25-.39,1.72-.62.94-1.09,1.17c-.47.31-1.02.39-1.56.39s-1.02-.16-1.48-.39c-.39-.23-.7-.55-.94-.94v1.17h-1.09v-8.51h1.09v3.44c.23-.39.55-.7,1.02-.94Zm3.05,1.64c-.16-.39-.47-.62-.78-.78s-.7-.31-1.09-.31-.78.08-1.09.31c-.31.16-.62.47-.78.86s-.31.78-.31,1.25.08.94.31,1.25.47.62.78.86c.31.16.7.31,1.09.31s.78-.08,1.09-.31c.31-.16.62-.47.78-.86s.31-.78.31-1.25c0-.55-.08-.94-.31-1.33Z" style="fill:#fff; stroke-width:0px;"/><path d="m124.41,120.26c.23-.47.62-.86,1.09-1.17.47-.23,1.02-.39,1.56-.39.47,0,.94.08,1.41.31.39.23.78.55,1.02.94v-3.36h1.09v8.59h-1.09v-1.17c-.23.39-.55.7-.94.94-.39.23-.86.39-1.48.39-.55,0-1.09-.16-1.56-.39-.47-.31-.86-.7-1.09-1.17-.23-.47-.39-1.09-.39-1.72,0-.7.08-1.33.39-1.8Zm4.68.47c-.16-.39-.47-.62-.78-.86-.31-.16-.7-.31-1.09-.31s-.78.08-1.09.31c-.31.16-.62.47-.78.78-.16.39-.31.78-.31,1.25s.08.94.31,1.25c.16.39.47.62.78.86.31.16.7.31,1.09.31s.78-.08,1.09-.31c.31-.16.62-.47.78-.86s.31-.78.31-1.25c0-.39-.08-.78-.31-1.17Z" style="fill:#fff; stroke-width:0px;"/><path d="m138.07,122.44h-5.15c0,.62.23,1.09.62,1.48s.86.55,1.41.55c.47,0,.86-.08,1.17-.31s.55-.47.62-.86h1.17c-.16.62-.55,1.09-1.02,1.48-.55.39-1.17.55-1.95.55-.62,0-1.17-.16-1.64-.39s-.86-.62-1.09-1.17c-.23-.47-.39-1.09-.39-1.72s.16-1.25.39-1.72.62-.86,1.09-1.17,1.02-.39,1.64-.39,1.17.16,1.64.39.86.62,1.09,1.09c.23.47.39,1.02.39,1.56.08.16,0,.39,0,.62Zm-1.33-1.95c-.16-.31-.39-.55-.7-.7-.31-.16-.62-.23-1.02-.23-.55,0-1.02.16-1.41.55-.39.31-.62.78-.62,1.41h4.06c0-.39-.16-.7-.31-1.02Z" style="fill:#fff; stroke-width:0px;"/><path d="m140.49,125.1c-.39-.16-.7-.39-.94-.7s-.31-.62-.39-1.02h1.09c0,.31.16.55.47.78.23.23.62.31,1.09.31.39,0,.7-.08.94-.23.23-.16.31-.39.31-.7s-.16-.47-.39-.62c-.23-.16-.62-.23-1.17-.39-.47-.16-.86-.23-1.17-.39s-.55-.31-.78-.55c-.23-.23-.31-.62-.31-1.02,0-.31.08-.62.31-.94.16-.23.47-.47.86-.62.39-.16.78-.23,1.25-.23.7,0,1.25.16,1.72.55.47.39.7.86.7,1.48h-1.09c0-.31-.16-.62-.39-.78-.23-.23-.55-.31-1.02-.31-.39,0-.7.08-.94.23-.23.16-.31.39-.31.62s.08.39.23.55.31.23.55.31.47.16.86.31c.47.16.86.23,1.09.39.31.16.55.31.7.55.23.23.31.55.31.94,0,.31-.08.7-.31.94-.16.31-.47.47-.86.62-.39.16-.78.23-1.25.23-.39-.08-.78-.16-1.17-.31Z" style="fill:#fff; stroke-width:0px;"/><path d="m145.65,117.52c-.16-.16-.23-.31-.23-.55s.08-.39.23-.55.31-.23.55-.23c.16,0,.39.08.47.23.16.16.23.31.23.55s-.08.39-.23.55-.31.23-.47.23c-.23,0-.39-.08-.55-.23Zm1.02,1.25v6.4h-1.09v-6.4h1.09Z" style="fill:#fff; stroke-width:0px;"/><path d="m152.6,119.08c.39.23.7.55.94.94v-1.17h1.09v6.56c0,.55-.16,1.09-.39,1.56s-.62.78-1.09,1.09c-.47.23-1.02.39-1.64.39-.86,0-1.56-.23-2.11-.62s-.86-.94-1.02-1.64h1.02c.08.39.39.7.7.94s.78.39,1.33.39,1.09-.16,1.41-.55c.39-.39.55-.86.55-1.56v-1.33c-.23.39-.55.7-.94.94s-.86.39-1.48.39c-.55,0-1.09-.16-1.56-.39-.47-.31-.86-.7-1.09-1.17-.23-.47-.39-1.09-.39-1.72s.16-1.25.39-1.72.62-.86,1.09-1.17c.47-.23,1.02-.39,1.56-.39.7-.16,1.17,0,1.64.23Zm.62,1.64c-.16-.39-.47-.62-.78-.86-.31-.16-.7-.31-1.09-.31s-.78.08-1.09.31c-.31.16-.62.47-.78.78-.16.39-.31.78-.31,1.25s.08.94.31,1.25c.16.39.47.62.78.86.31.16.7.31,1.09.31s.78-.08,1.09-.31c.31-.16.62-.47.78-.86s.31-.78.31-1.25c0-.39-.16-.78-.31-1.17Z" style="fill:#fff; stroke-width:0px;"/><path d="m161.42,119.4c.47.47.7,1.17.7,2.03v3.75h-1.02v-3.59c0-.62-.16-1.09-.47-1.48-.31-.31-.78-.55-1.33-.55s-1.02.16-1.33.55c-.31.31-.47.86-.47,1.56v3.51h-1.09v-6.4h1.09v.94c.23-.31.47-.55.86-.78.39-.16.78-.23,1.17-.23.7,0,1.33.23,1.87.7Z" style="fill:#fff; stroke-width:0px;"/><path d="m163.92,117.52c-.16-.16-.23-.31-.23-.55s.08-.39.23-.55.31-.23.55-.23c.16,0,.39.08.47.23.16.16.23.31.23.55s-.08.39-.23.55-.31.23-.47.23c-.23,0-.47-.08-.55-.23Zm1.02,1.25v6.4h-1.09v-6.4h1.09Z" style="fill:#fff; stroke-width:0px;"/><path d="m171.73,119.4c.47.47.7,1.17.7,2.03v3.75h-1.02v-3.59c0-.62-.16-1.09-.47-1.48-.31-.31-.78-.55-1.33-.55s-1.02.16-1.33.55c-.31.31-.47.86-.47,1.56v3.51h-1.09v-6.4h1.09v.94c.23-.31.47-.55.86-.78.39-.16.78-.23,1.17-.23.78,0,1.41.23,1.87.7Z" style="fill:#fff; stroke-width:0px;"/><path d="m178.28,119.08c.39.23.7.55.94.94v-1.17h1.09v6.56c0,.55-.16,1.09-.39,1.56s-.62.78-1.09,1.09c-.47.23-1.02.39-1.64.39-.86,0-1.56-.23-2.11-.62s-.86-.94-1.02-1.64h1.02c.08.39.39.7.7.94s.78.39,1.33.39,1.09-.16,1.41-.55c.39-.39.55-.86.55-1.56v-1.33c-.23.39-.55.7-.94.94s-.86.39-1.48.39c-.55,0-1.09-.16-1.56-.39-.47-.31-.86-.7-1.09-1.17-.23-.47-.39-1.09-.39-1.72s.16-1.25.39-1.72.62-.86,1.09-1.17c.47-.23,1.02-.39,1.56-.39.78-.16,1.25,0,1.64.23Zm.62,1.64c-.16-.39-.47-.62-.78-.86-.31-.16-.7-.31-1.09-.31s-.78.08-1.09.31c-.31.16-.62.47-.78.78-.16.39-.31.78-.31,1.25s.08.94.31,1.25c.16.39.47.62.78.86.31.16.7.31,1.09.31s.78-.08,1.09-.31c.31-.16.62-.47.78-.86s.31-.78.31-1.25c0-.39-.08-.78-.31-1.17Z" style="fill:#fff; stroke-width:0px;"/><path d="m186.33,126.58c0,.55-.16,1.02-.47,1.25-.31.23-.7.39-1.25.39h-.62v-.94h.47c.31,0,.47-.08.62-.16s.16-.31.16-.62v-7.73h1.09v7.81h0Zm-1.02-9.06c-.16-.16-.23-.31-.23-.55s.08-.39.23-.55.31-.23.55-.23.39.08.55.23c.16.16.23.31.23.55s-.08.39-.23.55-.31.23-.55.23-.47-.08-.55-.23Z" style="fill:#fff; stroke-width:0px;"/><path d="m189.29,124.94c-.47-.23-.86-.62-1.17-1.17-.31-.47-.39-1.09-.39-1.72s.16-1.25.39-1.72c.31-.47.7-.86,1.17-1.17.47-.23,1.02-.39,1.64-.39s1.17.16,1.64.39.86.62,1.17,1.17c.31.47.39,1.09.39,1.72s-.16,1.25-.47,1.72c-.31.47-.7.86-1.17,1.17-.47.23-1.02.39-1.64.39-.55,0-1.09-.16-1.56-.39Zm2.65-.86c.31-.16.62-.47.78-.78.23-.39.31-.78.31-1.33s-.08-.94-.31-1.33c-.23-.39-.47-.62-.78-.78s-.7-.23-1.09-.23-.78.08-1.09.23c-.31.16-.55.47-.78.78-.16.39-.31.78-.31,1.33s.08.94.31,1.33.47.62.78.78.7.23,1.02.23c.47.08.86,0,1.17-.23Z" style="fill:#fff; stroke-width:0px;"/><path d="m201.24,118.77v6.4h-1.02v-.94c-.23.31-.47.55-.86.78-.39.16-.78.31-1.17.31-.47,0-.94-.08-1.33-.31s-.7-.55-.94-.94-.31-.94-.31-1.48v-3.75h1.02v3.59c0,.62.16,1.09.47,1.48.31.31.78.55,1.33.55s1.02-.16,1.33-.55c.31-.31.47-.86.47-1.56v-3.51h1.02v-.08Z" style="fill:#fff; stroke-width:0px;"/><path d="m204.91,119.01c.31-.23.78-.31,1.25-.31v1.09h-.31c-1.17,0-1.8.62-1.8,1.95v3.51h-1.09v-6.4h1.09v1.02c.23-.39.55-.7.86-.86Z" style="fill:#fff; stroke-width:0px;"/><path d="m212.4,119.4c.47.47.7,1.17.7,2.03v3.75h-1.02v-3.59c0-.62-.16-1.09-.47-1.48-.31-.31-.78-.55-1.33-.55s-1.02.16-1.33.55c-.31.31-.47.86-.47,1.56v3.51h-1.09v-6.4h1.09v.94c.23-.31.47-.55.86-.78.39-.16.78-.23,1.17-.23.78,0,1.41.23,1.87.7Z" style="fill:#fff; stroke-width:0px;"/><path d="m220.68,122.44h-5.15c0,.62.23,1.09.62,1.48s.86.55,1.41.55c.47,0,.86-.08,1.17-.31s.55-.47.62-.86h1.17c-.16.62-.55,1.09-1.02,1.48-.55.39-1.17.55-1.95.55-.62,0-1.17-.16-1.64-.39s-.86-.62-1.09-1.17c-.23-.47-.39-1.09-.39-1.72s.16-1.25.39-1.72.62-.86,1.09-1.17,1.02-.39,1.64-.39,1.17.16,1.64.39.86.62,1.09,1.09.39,1.02.39,1.56c.08.16,0,.39,0,.62Zm-1.33-1.95c-.16-.31-.39-.55-.7-.7-.31-.16-.62-.23-1.02-.23-.55,0-1.02.16-1.41.55-.39.31-.62.78-.62,1.41h4.06c0-.39-.16-.7-.31-1.02Z" style="fill:#fff; stroke-width:0px;"/><path d="m227.63,118.77l-3.83,9.45h-1.09l1.25-3.05-2.58-6.32h1.17l2.03,5.15,1.95-5.15h1.09v-.08Z" style="fill:#fff; stroke-width:0px;"/><path d="m59.75,178.7h-21.46c-.59,0-1.1-.51-1.1-1.1v-21.46c0-.59.51-1.1,1.1-1.1h21.46c.59,0,1.1.51,1.1,1.1v21.46c0,.68-.51,1.1-1.1,1.1Z" style="fill:#fff; stroke-width:0px;"/><path d="m45.56,173.71h-2.03c-.17,0-.34-.17-.34-.42v-12.84c0-.17.17-.42.34-.42h2.03c.17,0,.34.17.34.42v12.84c0,.25-.17.42-.34.42Z" style="fill:#20e2ad; stroke-width:0px;"/><path d="m54.94,160.53v2.11c0,.17-.17.42-.34.42h-7.18c-.17,0-.34-.17-.34-.42v-2.11c0-.17.17-.42.34-.42h7.18c.17,0,.34.17.34.42Z" style="fill:#20e2ad; stroke-width:0px;"/><path d="m54.94,165.86v2.11c0,.17-.17.42-.34.42h-7.18c-.17,0-.34-.17-.34-.42v-2.11c0-.17.17-.42.34-.42h7.18c.17,0,.34.17.34.42Z" style="fill:#20e2ad; stroke-width:0px;"/><path d="m54.94,171.18v2.11c0,.17-.17.42-.34.42h-7.18c-.17,0-.34-.17-.34-.42v-2.11c0-.17.17-.42.34-.42h7.18c.17,0,.34.17.34.42Z" style="fill:#20e2ad; stroke-width:0px;"/><path d="m52.49,160.11h2.03c.17,0,.34.17.34.42v7.43c0,.17-.17.42-.34.42h-2.03c-.17,0-.34-.17-.34-.42v-7.43c0-.25.17-.42.34-.42Z" style="fill:#20e2ad; stroke-width:0px;"/><path d="m68.45,163.32v2.79h4.31l.51,1.94h-4.73v2.79h5.66v1.94h-7.69v-11.49h7.69v1.94h-5.74v.08Z" style="fill:#fff; stroke-width:0px;"/><path d="m82.31,170.84v1.94h-6.42v-11.4h1.94v9.46h4.48Z" style="fill:#fff; stroke-width:0px;"/><path d="m85.77,163.32v2.79h4.31l.51,1.94h-4.73v2.79h5.74v1.94h-7.69v-11.49h7.69v1.94h-5.83v.08Z" style="fill:#fff; stroke-width:0px;"/><path d="m104.61,161.38v11.49h-1.94v-8.11l-3.8,5.83-3.8-5.83v8.11h-1.94v-11.49h2.11l3.55,5.58,3.63-5.58h2.2Z" style="fill:#fff; stroke-width:0px;"/><path d="m108.49,163.32v2.79h4.31l.51,1.94h-4.73v2.79h5.74v1.94h-7.69v-11.49h7.69v1.94h-5.83v.08Z" style="fill:#fff; stroke-width:0px;"/><path d="m124.54,161.38v11.49h-2.11l-4.56-7.86v7.86h-1.94v-11.49h2.11l4.56,7.86v-7.86h1.94Z" style="fill:#fff; stroke-width:0px;"/><path d="m134.76,163.32h-3.38v9.46h-1.94v-9.46h-3.38v-1.94h8.7v1.94Z" style="fill:#fff; stroke-width:0px;"/><path d="m145.32,161.72c.51.25.93.51,1.35.84.34.34.68.84.84,1.27.25.51.34,1.01.34,1.61s-.08,1.1-.34,1.61c-.25.51-.51.93-.84,1.35-.34.34-.84.68-1.35.84-.51.25-1.01.34-1.61.34h-1.61l.84-1.94h.84c.59,0,1.1-.17,1.52-.68.42-.42.68-.93.68-1.52s-.17-1.1-.68-1.52c-.42-.42-.93-.68-1.52-.68h-2.28v9.46h-1.94v-11.49h4.31c.42.17,1.01.25,1.44.51Z" style="fill:#fff; stroke-width:0px;"/><path d="m159.6,172.87h-2.2l-.84-1.94-.84-1.94-2.37-5.15-2.37,5.15h2.96l.84,1.94h-4.73l-.84,1.94h-2.2l5.15-11.49h2.2l5.24,11.49Z" style="fill:#fff; stroke-width:0px;"/><path d="m170.58,171.26c-.51.51-1.18,1.01-1.86,1.27-.68.34-1.52.51-2.37.51s-1.61-.17-2.28-.51c-.76-.34-1.35-.76-1.86-1.27-.51-.51-.93-1.18-1.27-1.86-.34-.76-.51-1.52-.51-2.28,0-.84.17-1.61.51-2.28.34-.76.76-1.35,1.27-1.86.51-.51,1.18-.93,1.86-1.27.76-.34,1.52-.51,2.28-.51.84,0,1.61.17,2.37.51.68.34,1.35.76,1.86,1.27l-1.35,1.35c-.42-.42-.84-.68-1.27-.84-.51-.17-1.01-.34-1.52-.34s-1.01.08-1.52.34c-.51.17-.93.51-1.27.84-.42.42-.68.84-.84,1.27-.17.51-.34,1.01-.34,1.52s.08,1.01.34,1.52c.17.51.51.93.84,1.27.42.42.84.68,1.27.84.51.17,1.01.34,1.52.34s1.1-.08,1.52-.34c.51-.17.93-.51,1.27-.84l1.35,1.35Z" style="fill:#fff; stroke-width:0px;"/><path d="m178.35,172.87l-4.39-4.39v4.31h-1.94v-11.4h1.94v4.31l4.31-4.31h2.79l-5.74,5.74,5.74,5.74h-2.7Z" style="fill:#fff; stroke-width:0px;"/><path d="m180.63,160.87h-10.39c-.25,0-.51-.17-.51-.51v-5.07c0-.25.17-.51.51-.51h10.39c.25,0,.51.17.51.51v5.07c-.08.25-.25.51-.51.51Z" style="fill:#ff004f; stroke-width:0px;"/><path d="m171.34,156.14h.59v3.38h-.59v-3.38Zm.25,1.52h1.1c.08,0,.17,0,.25-.08.08,0,.08-.08.17-.17s.08-.17.08-.25,0-.17-.08-.25c0-.08-.08-.17-.17-.17s-.17-.08-.25-.08h-1.1v-.51h1.1c.17,0,.42,0,.51.08.17.08.25.17.34.34.08.17.17.34.17.51s-.08.42-.17.51c-.08.17-.17.25-.34.34-.17.08-.34.08-.51.08h-1.1v-.34Z" style="fill:#fff; stroke-width:0px;"/><path d="m174.21,156.14h.59v3.38h-.59v-3.38Zm.25,1.44h1.18c.08,0,.17,0,.17-.08.08,0,.08-.08.17-.17s.08-.17.08-.25,0-.17-.08-.25l-.17-.17c-.08,0-.08-.08-.17-.08h-1.18v-.51h1.18c.17,0,.34,0,.51.08.17.08.25.17.34.34.08.17.08.34.08.51s0,.34-.08.51c-.08.17-.17.25-.34.34-.17.08-.34.08-.51.08h-1.18v-.34h0Zm.84.42l.59-.08.84,1.61h-.68l-.76-1.52Z" style="fill:#fff; stroke-width:0px;"/><path d="m177.76,159.35c-.17-.08-.34-.25-.42-.42s-.17-.42-.17-.68v-.93c0-.25.08-.42.17-.68.08-.17.25-.34.42-.42s.42-.17.59-.17.42.08.59.17c.17.08.34.25.42.42s.17.42.17.68v.93c0,.25-.08.42-.17.68-.08.17-.25.34-.42.42s-.42.17-.59.17-.42-.08-.59-.17Zm.93-.42l.25-.25c.08-.08.08-.25.08-.34v-1.01c0-.17,0-.25-.08-.34-.08-.08-.08-.17-.25-.25-.08-.08-.17-.08-.34-.08-.08,0-.25,0-.34.08l-.25.25c-.08.08-.08.25-.08.34v1.01c0,.17,0,.25.08.34.08.08.08.17.25.25.08.08.17.08.34.08s.25-.08.34-.08Z" style="fill:#fff; stroke-width:0px;"/><rect width="600" height="240" style="fill:none; stroke-width:0px;"/></svg>